# xmcd
#
# Track frame offsets:
#	150
#	28612
#	59271
#	74413
#	84962
#	98234
#	109924
#	119826
#	131566
#	146916
#	157866
#	173313
#	182473
#	193896
#	203589
#	214987
#	226180
#	240190
#	254330
#	267130
#	274445
#	285970
#	297027
#
# Disc length: 4133 seconds
#
# Revision: 0
# Processed by: cddbd v1.5.2PL0 Copyright (c) Steve Scherf et al.
# Submitted via: EZCDAudioConverter 8.1.1.1
#
DISCID=4b102317
DTITLE=Various Artist - Δημοτικά τραγούδια Νο2
DYEAR=2005
DGENRE=Δημοτικά
TTITLE0=Various Artist - Μαντήλι Καλαματιανό, Σαν Πας Στην Καλαμάτα, Μου Παρά
TTITLE0=γγειλε Τ ‘αηδόνι, Το Παπάκι Πάει Στην Ποταμιά
TTITLE1=Σπύρος Ζαχαριάς  - Η Μηλίτσα Σπύρος Ζαχαριάς, Κάτω Από Μια Μηλιά, Το Φ
TTITLE1=εγγάρι Κάνει Κύκλο 
TTITLE2=Σπύρος Ζαχαριάς  - Ο Κόκορας
TTITLE3=Τάκης Μηντζιάς - Μήλο Μου Κόκκινο
TTITLE4=Τάκης Μηντζιάς - Πω Πω Πω Μαρία Κόκκινο
TTITLE5=Θανάσης Βαρσαμάς - Για Πάρε Με Για Πάρε Με
TTITLE6=Γιώργος Μπέλιος - Πέρα Στη Χασιά
TTITLE7=Κώστας Κατσίκας - Μια Βλάχα Στο Τιμόνι
TTITLE8=Βασίλης Χρυσανθόπουλος - 45 Γιάννηδες
TTITLE9=Γιώργος Μεϊντανάς - Αιγιώτισσα
TTITLE10=Στέλλα Κονιτοπούλου - Από Μικρός Στη Θάλασσα
TTITLE11=Βαγγέλης Κονιτόπουλος - Μα Το Σταυρό Που Κάνουμε
TTITLE12=Γιούλα Σφυρόερα - Ένα Καράβι Από Τη Χιο
TTITLE13=Γιώργος Μητσάκης - Τα Παλαμάκια
TTITLE14=Έλενα Γιαννακάκη - Πήρα Δρόμους Και Σοκάκια
TTITLE15=Γιώτα Λύδια - Μαλαματένιος Αργαλειός
TTITLE16=Εύα Γρηγορέα - Εβδομηντάρης
TTITLE17=Δ. Σαββόπουλος, Α. Κιτσάκης, Ε. Αρβανιτάκη, Γ. Μηλιώκας, Δ. Γαλάνη, Ν
TTITLE17=Παπάζογλου, Λ. Διαμάντη - Ανέβηκα Στην Πιπεριά
TTITLE18=Ηλίας Μεγαλούδης - Ο Παπαγάλος
TTITLE19=Ηλίας Μεγαλούδης - Η Γριά Κι Ο Γέρος
TTITLE20=Ηλίας Μεγαλούδης - Η Θεία
TTITLE21=Ηλίας Μεγαλούδης - Έλα Στο Θείο
TTITLE22=Ηλίας Μεγαλούδης - Το Ντήλι
EXTD=
EXTT0=
EXTT1=
EXTT2=
EXTT3=
EXTT4=
EXTT5=
EXTT6=
EXTT7=
EXTT8=
EXTT9=
EXTT10=
EXTT11=
EXTT12=
EXTT13=
EXTT14=
EXTT15=
EXTT16=
EXTT17=
EXTT18=
EXTT19=
EXTT20=
EXTT21=
EXTT22=
PLAYORDER=
